<?xml version="1.0" encoding="utf-8"?>
<!-- Generator: Adobe Illustrator 19.0.0, SVG Export Plug-In . SVG Version: 6.00 Build 0)  -->
<svg version="1.1" id="Layer_1" xmlns="http://www.w3.org/2000/svg" xmlns:xlink="http://www.w3.org/1999/xlink" x="0px" y="0px"
	 viewBox="0 0 1024.1 1024.2" style="enable-background:new 0 0 1024.1 1024.2;" xml:space="preserve">
<style type="text/css">
	.st0{fill:#FFB6E3;}
</style>
<g>
	<path class="st0" d="M26.9,441.6c2.5-3.3,6.8-7.9,13.3-9.9c11.7-3.7,16.3,8.4,38.8,8.8c10.7,0.2,21.3,1.4,31.2,5.7
		c13.7,6,22.3,16.9,27.5,30.5c2.2,5.8,1.5,12.1,1.9,18.2c0.8,16.6-3.8,31.8-11.4,46.1c-2.8,5.3-5.2,11.3-10.7,15.3
		c-8.5,6.2-17.4,6.5-27,3.9c-7.8-2.1-15.7-2-23.7-0.5c-5.1,0.9-8.1,4.1-9.5,8.5c-1.6,5.4-4.6,9.9-7.1,14.8c-1.1,2.2-4.3,5.9-9.2,7.5
		c-7.8,2.6-15.3-2.6-16.6-3.5c-2.7-4.3-6.5-11.1-9.3-20c-3.3-10.2-9.9-30.5-1.3-48c4.5-9.2,9.5-10.3,11.3-20
		c1.2-6.7,0.1-12.7-1.3-20c-2.4-12.5-5.5-15.2-4.7-22C19.7,450.1,23.7,444.9,26.9,441.6z"/>
	<path class="st0" d="M762.1,27.1c1.2,3,11,27.1,8,40.4c-0.6,2.7-1.8,6.8-5.1,9c-2.2,1.5-4.9,2.1-8.2,1.8c-3.8-0.4-5.1,0.2-5.5,4.4
		c-0.5,5.2-1.8,10.3-4.6,15.1c-1.4,2.4-3.1,4.2-4.9,5.5c-5.1,3.7-10.8,3.7-14.2,3.6c-1.6,0-16.9-0.6-20.1-8.8
		c-1.4-3.5,0.4-5.9-1.8-8c-2.8-2.8-7.3,0.2-10.3-2.3c-2.7-2.2-1.9-7.2-0.8-14.3c1.8-11,4.5-12.1,4-18.7c-0.3-5-1.9-4.1-3.2-12.6
		c-0.2-1.2-1-6.4-0.9-13.4c0-2.7,0.2-5,0.3-6.7c-0.1-2.8,0.3-6.4,2.8-8.3c3.3-2.5,7.5,0.6,16.3,1.8c7.1,0.9,6.7-0.8,20-0.8
		c8.7,0,13.1,0.1,17.3,2C756.7,19.5,760.2,24,762.1,27.1z"/>
	<path class="st0" d="M450.4,18.4c3.9,3.2,7.4,6.7,8.9,11.7c0.7,2.3,2.1,2.8,4.5,2.9c10.7,0.2,19.6,4.7,26.5,12.7
		c5.3,6.2,5.6,12.7,0.8,19.2c-4.6,6.3-9.6,12.3-16.2,16.8c-5.5,3.7-9.8,9-15.7,12.2c-5.8,3.2-11.7,3.7-17.8,1.3
		c-3-1.2-6.2-0.9-9.3-1.8c-2.2-0.6-2.9,1.4-3.5,2.8c-2.8,6.3-7.9,8.9-14.3,10.1c-8.4,1.6-16.6-5.7-15.6-15.3
		c1.7-16.4,3.8-32.9,14.4-46.4c7-8.9,12.1-19.3,21.3-26.4C439.8,18.4,445.1,18.4,450.4,18.4z"/>
	<path class="st0" d="M18.3,882.8c3.5-7.4,7.4-14.6,12.1-21.3c5-7.1,10-9.4,16-7.4c7.6,2.6,11.7,9.7,10,18.7
		c-2.1,11.4,0.3,20.9,9.9,28.2c6.7,5.1,7.9,18.5,3.3,28.8c-3.1,6.9-8.5,10.9-12,12.8c-1.5,0.4-3.8,0.9-6.7,0.7
		c-5.9-0.6-7.4-3.9-13.2-4.3c-3.7-0.3-4.3,1.1-8,0.5c-3.4-0.5-6-2.1-7.7-3.3c-0.6-1-1.5-2.7-2.3-4.8c-2-5.6-1.4-9.6-1.7-15
		c-0.3-8-2-8-2.5-14.8C15.3,897.1,15.5,890.8,18.3,882.8z"/>
	<path class="st0" d="M19.5,642.5c9.8-6.8,19.6-6.9,29.6-0.3c2.8,1.9,5,4,5.8,7.1c0.8,3.2,2.7,4.6,5.6,5.5
		c11.1,3.7,14.7,13.7,9,24.3C64,689.4,55.9,696.5,45,700.5c-5.6,2-13-2.2-14.2-8.3c-0.2-1-0.2-2-0.2-3c-0.6-9.5-0.9-9.8-11.1-10.6
		c-1.6-3.5-4.1-10.2-4-18.9C15.7,651.9,18,645.9,19.5,642.5z"/>
	<path class="st0" d="M1024.7,302.6c0.3-0.1,0.6-0.1,0.8,0c0,37.7,0,75.3,0,113c-0.4,0-0.8-0.1-1.2-0.1c0.1-1.7,0.2-3.3,0.2-5
		C1024.6,374.5,1024.7,338.6,1024.7,302.6z"/>
	<path class="st0" d="M1024.5,91.6c0.3,0,0.7,0,1,0c0,23.3,0,46.7,0,70c-0.4,0-0.8-0.1-1.2-0.1
		C1024.4,138.2,1024.5,114.9,1024.5,91.6z"/>
	<path class="st0" d="M781.6,1025.6c-0.1-0.3-0.1-0.6-0.1-0.8c22,0,44.1-0.1,66.1-0.1c0,0.3,0,0.6,0,1
		C825.6,1025.6,803.6,1025.6,781.6,1025.6z"/>
	<path class="st0" d="M869.6,1025.6c0-0.3,0-0.7,0-1c19.7,0.1,39.4,0.1,59.1,0.2c0.1,0.3,0,0.5-0.1,0.8
		C908.9,1025.6,889.2,1025.6,869.6,1025.6z"/>
	<path class="st0" d="M1024.5,457.7c0.4,0,0.7,0,1.1,0c0,7.3,0,14.7,0,22c-1.6-0.2-2.1-1-1.7-2.5
		C1025,470.7,1024.3,464.1,1024.5,457.7z"/>
	<path class="st0" d="M541.2,822.4c-8.1,9.1-18.5,13.7-29.6,17c-6.2,1.9-12.3,2.8-18.3-0.7c-2.7-1.6-4.9-3.4-6.2-6.3
		c-3.4-7.6-5.8-15.5-5.6-24c0.4-14-3.8-26.4-13.7-36.2c-4.3-4.2-10.3-7.2-15.9-9.6c-15.5-6.6-25.1-18.1-28.7-34.1
		c-2-8.8,1-17.8,3.4-26.4c0.4-1.4,1.2-2.8,2.3-3.8c11.4-10.8,23-21.4,40.1-21.5c6.5-0.1,10.9-2.4,14.3-8.4
		c5.3-9.5,14.7-11.3,24.9-11.3c12.7,0,21.5,5.8,28.8,15.7c6.3,8.5,12.2,17.4,19.2,25.4c9.3,10.7,20.4,19.4,35,22
		c5.4,1,10-1.7,14.7-3.9c9-4.4,16.8-10.7,25.2-16c13.3-8.5,29.3-5.5,37.9,7.6c6.5,9.9,5.5,20.4-1.1,30.6
		c-9.2,14.2-22.3,24-35.9,33.1c-5.3,3.6-9.2,7.8-11.1,13.5c-2.4,7.1-7.4,12.5-10.9,18.9c-3.8,7-8.6,13-15.1,17.4
		c-14.8,9.7-31.5,16.5-48.8,3.5C544.7,823.8,543.3,822.6,541.2,822.4z"/>
	<path class="st0" d="M157.9,25.7c5.1,0.7,9.8,1.7,14.3,3.4c8.1,3.1,16.5,5,25.3,4c4.2-0.5,7.2-2.4,8.9-6.2
		c1.8-4.2,4.6-7.7,7.4-11.2c8.2-10.2,21.9-13.1,33.7-7.4c3.9,1.9,6.8,4.8,8.7,8.6c3.2,6.4,5.7,13,8.3,19.7
		c4.7,12.3,10.4,23.7,25.7,26.8c11.5,2.3,18.1,16.2,15.3,27.6c-4.5,18.5-15.6,31.5-31.4,41.7c-9.1,5.9-17.8,12.5-24.1,22.5
		c-5.6,8.9-14.8,15.9-25.4,19.2c-6.5,2.1-11.9-2.2-16.2-5.9c-12.7-10.9-27.3-16.1-43.8-18.3c-13-1.7-25.3-6.6-35.6-15.4
		c-3-2.5-5.5-5.5-7.3-8.8c-7.3-13.5-10.2-27.3-6.3-42.9c2.4-9.5,6.2-18.2,9.6-27.2c3.9-10.2,11.5-17.8,18.6-25.7
		C147.2,26.4,153.2,26.8,157.9,25.7z"/>
	<path class="st0" d="M792.8,100c-0.9-7.9,1.7-15.2,2.2-22.8c0.3-4,3.4-7.6,4.8-11.6c4.7-12.8,11.7-24.2,21.3-33.9
		c5.4-5.4,12.6-6.4,19.9-5.4c7.4,1,14,5.2,21.5,6c2.6,0.3,5.3,0.8,7.9,1c7.6,0.5,13.6-1.3,16.6-9.4c2.2-5.9,6.4-10.9,11.5-14.2
		c6.2-4,13.8-5.3,21.3-3.9c6.4,1.2,11.9,4.5,15.1,10.5c3.3,6.3,6.2,12.8,8.4,19.7c4.3,13.2,10.8,24.3,26.3,27.5
		c10.1,2.1,16.8,13.7,15.3,24.6c-2.1,14.9-9,27.3-21.1,36.6c-6.1,4.6-12.2,9.2-18.4,13.6c-6.6,4.8-11.8,10.7-16.7,17.4
		c-6.1,8.5-14.6,15.1-24.7,18.8c-6.1,2.2-11.7-1.5-15.9-5.2c-11.6-10.3-25.1-16-40.2-18.4c-10-1.6-19.8-3.7-28.9-8.5
		c-11.5-6-19.3-14.8-23.3-27C794.1,110.3,791.1,105.5,792.8,100z"/>
	<path class="st0" d="M799.8,487.8c-1.9,17.1-4.8,33.8-14.6,48.6c-2.4,3.7-4.2,7.5-8,10.5c-8.5,6.5-17.3,6.5-27,4
		c-8.2-2.1-16.4-2.1-24.7-0.2c-4.4,1-7.2,3.4-8.2,7.7c-1.4,5.8-4.7,10.6-7.5,15.7c-1.9,3.6-4.8,6-9.5,7c-4.5,1-8.5,3.6-13.7,3.1
		c-6.5-0.6-11.5-3.4-15.4-8.1c-4.5-5.5-8.5-11.3-11.5-18c-5.8-12.9-14.3-22.2-29.9-23.4c-11.8-0.9-20.6-13.5-19-25.1
		c2.4-18.1,10.7-32.8,24.7-44.7c8.4-7.1,16.4-14.7,20.8-25.6c3.4-8.4,10.5-14.5,17.4-20.3c6.7-5.7,13-5.5,20.6-0.1
		c14,9.9,29.4,12.2,45.8,12.2c10.1,0,20.2,1.5,29.7,5.6c15,6.3,23.6,18.5,28.5,33.3C800.1,475.5,799.7,481.7,799.8,487.8z"/>
	<path class="st0" d="M588.3,1009.9c-7.3,5.8-13.9,6.6-16.8,6.8c-4.8,0.2-8.7-0.9-14.7-2.7c-5.2-1.5-7.8-2.3-10.7-4.3
		c-1.4-1-2.7-2.1-4.9-3c-2.6-1.1-5.1-1.3-6.8-1.3c-8.3,1.4-21.9,2.5-37.2-2.4c-7.6-2.4-19.9-6-29.2-17.7c-10-12.5-13.6-27-10.6-43.3
		c3.1-16.5,9.6-31.4,18.9-45.1c2.7-4,5.9-7.7,9.4-10.9c5.8-5.4,13-6,20.6-4.8c6.9,1.1,12.7,5.6,19.8,6.4c3.5,0.4,6.9,1,10.4,1
		c6.5,0.1,11.1-2,13.7-8.4c2.6-6.6,7.5-12.3,13-16.1c5.4-3.7,12.8-4.9,19.9-3.6c6.7,1.2,12.1,4.6,15.5,10.6
		c3.5,6.2,6.2,12.8,8.5,19.6c4.4,13,10.3,24.6,26.2,27.5c10.6,1.9,17.9,16.3,15.2,28c-3.1,13.5-9.8,24.9-20.7,33.8
		c-5.7,4.6-10.1,7.7-12.4,9.1C609.1,993.1,599.9,999.5,588.3,1009.9z"/>
	<path class="st0" d="M406.1,646.9c1.7,9-1.7,17.5-4.6,25.3c-2.8,7.5-10.4,12.2-19.4,12.5c-4.7,0.1-9.3,0.2-13.9,0.8
		c-5.2,0.7-8.1,3.6-9.5,8.2c-1.2,4.1-2.1,8.2-2.1,12.7c-0.1,16.2-5.9,30.1-17.8,41.3c-3.3,3.1-7.4,4.4-11.7,5.1
		c-12.5,2-24.8,4.1-37.6,2.1c-9.9-1.6-18.5-5.1-24.6-13.3c-7.6-10.1-12-21.4-14.9-33.8c-3.2-13.5-2-25.9,3.3-38.4
		c3.5-8.2,10-13,17.1-18c9.8-6.8,22.1-6.8,31.8-13.7c6.8-4.8,11.9-10.2,15.1-17.9c4.1-10.2,9.6-19.8,17.2-27.8
		c4.8-5.1,11-8.7,18.4-9c9.8-0.5,19.5,0.8,27.7,6.4c5.8,4,9.8,10,12.6,16.4c4.4,10,9.8,19.5,12.3,30.4
		C406.4,639.9,405.9,643.3,406.1,646.9z"/>
	<path class="st0" d="M428.3,848.3c-0.4,14.4,3,28.5,3.5,42.8c0.3,8.9-0.6,17.6-1.4,26.4c-0.5,5.3-5.6,9.6-11.2,9.2
		c-5.2-0.5-7.3,0.5-8,6.5c-1,9.4-4,18.6-14.8,21.5c-11.4,3.1-21.4,0-29.5-8.5c-10.2-10.7-13.8-23.3-11.9-38
		c1.3-10.5,1.3-21.3-0.4-31.9c-1.2-7.4-2.8-9-10.8-9.5c-8.1-0.5-16.3-0.6-24.4-1.9c-9.2-1.5-15.2-6.9-19-15.1
		c-6-13.1-4.5-26.7-2.5-40.2c1.1-8,3.1-16,6.7-23.4c2.6-5.3,5.3-10.6,9.2-15.1c6.2-7.2,20.1-6.6,25.4,1.3c5.2,7.6,12.5,13.1,19,19.3
		c4.2,4,10.2,2,15.4,2.2c7.8,0.3,15.5-2.2,23.3,0.1c16.5,4.8,26.6,16.3,31.1,32.1C429.9,832.9,428.3,840.8,428.3,848.3z"/>
	<path class="st0" d="M118.1,727.3c10.3-7.3,21.1-10.8,33.2-9c3.8,0.6,6.7,2.8,8,6.7c2.1,6.6,2.4,13.1,1.6,20.1
		c-1.2,10.1,0.7,25,11.3,31.6c8.2,5,15.2,11.1,20.1,20c6.6,12,2.6,29.4-8.7,37.3c-9.5,6.6-19.5,9.8-30.9,8.7
		c-3.1-0.3-5.3,1.1-6.8,3.4c-8.3,12.8-34,7.8-39.5-6.1c-3-7.7-7.7-14.7-12-21.8c-4.8-8-11.1-14.4-19.4-19c-4.1-2.3-8.1-2.6-12.5-1.6
		c-8.8,2.1-16.2,7.5-24.7,10.6c-14.5,5.2-25.6-2.5-28.2-16.2c-0.9-4.8,1.2-10.8,5.1-15.2c7.4-8.2,16-14.8,26-19.3
		c7.1-3.2,12.1-8.1,16.9-14.6c8.4-11.3,17.5-22.7,33.4-25.1c9.4-1.4,17.1,0.2,23.7,7c0.8,0.8,1.7,1.6,2.6,2.3
		C117.7,727.3,118.1,727.3,118.1,727.3z"/>
	<path class="st0" d="M795,689.2c9.2-6.7,19.1-10.3,30.4-9.6c6.6,0.4,10.2,3.4,12.1,9.9c1.6,5.7,1.7,11.5,1,17.3
		c-1,8.4-0.1,16.4,4,24c2.9,5.4,7.7,9.1,12.6,11.5c9.6,4.8,21.1,23.9,16.2,36.9c-6.2,16.3-19.5,26.1-38,25.2
		c-4.5-0.2-8.2,0.4-10.9,4.2c-7.5,10.7-31.2,7.3-38-6c-5.5-10.7-10.6-21.9-18.5-31.2c-4.4-5.1-9.8-9-15.8-11.9
		c-5.9-2.8-11.9-0.5-17.2,2c-5.8,2.8-11.5,5.9-17.5,8.2c-14.9,5.6-25.5-2.7-28.1-16.3c-0.9-4.8,1.3-10.7,5.2-15.1
		c8.1-9.4,18.1-15.9,29.2-20.9c5.7-2.6,9.3-6.8,12.9-11.8c9.4-13.2,20-25.4,38-26.8c6.5-0.5,12.2,1,17.2,5
		C791.4,685.6,793.2,687.5,795,689.2z"/>
	<path class="st0" d="M304.5,282.4c14.8,1,26.8,8,38,17.3c7.3,6.1,12.4,13.9,17.8,21.4c4.9,6.9,2.4,13.6-0.9,20.2
		c-2.5,4.9-6.7,8.7-8.9,13.8c-0.7,1.7-1.3,3.4-2.1,5.1c-2.7,6.2-1.6,11.1,3.6,16c7.2,6.8,10.9,15.2,7.7,25.5
		c-2.9,9.3-9,14.3-20.7,14.7c-7.2,0.3-14.2,1.5-21.3,2.2c-6.1,0.6-10.2,4.9-12.7,9.6c-6.5,12.3-23.7,13.7-34.4,4.4
		c-9.7-8.4-15.2-18.6-18.4-30.5c-2.2-8.2-6-15.4-11-22.1c-5-6.7-8.5-14.1-10-22.6c-1.2-6.8,2.3-11.8,6.9-14.4
		c14.4-8,20.9-21.8,28-35.3c4.8-9.2,12.2-16.2,20.7-21.8C292.1,282.7,298.4,282.9,304.5,282.4z"/>
	<path class="st0" d="M487.7,297.6c4.7,0,9.3,0.1,14,0c4.4-0.2,7.8-2.5,11-5.3c12-10.4,23-13,38.9-5.7c6,2.7,10.8,7.4,14,13.1
		c4.8,8.5,9.4,17.1,11,27c3.5,21.7,4,43.3-1.7,64.6c-2.7,10.1-8.2,19.3-15.7,26.8c-7,7-14.6,6.6-22,0c-7.1-6.3-15.5-11.4-21.4-18.6
		c-8-9.7-17.6-10-28.7-9.4c-10.7,0.5-19.4-5.3-25.4-13.6c-6.6-9.1-11.5-19.3-14.9-30.1c-6.3-20.2,3.5-36.8,19.8-46.4
		C473,296.2,480.6,297.5,487.7,297.6z"/>
	<path class="st0" d="M603.3,252.2c-7-0.2-13.7-2.1-20.5-3.1c-4.3-0.7-8.1-0.4-11.8,1.9c-2.5,1.5-5.3,2.6-7.9,3.9
		c-16.7,8.2-37.2-4.4-41.4-22.3c-1.6-6.8-3.7-13.3-4-20.4c-0.7-14.4,2.2-28.2,4.9-42.1c2.6-13.7,9.9-24.9,19.5-34.5
		c3.8-3.9,8.6-6.3,14.4-5c2.2,0.5,4.2,1.5,5.6,3.4c7.2,9.6,16,17.9,22.8,28c3.1,4.6,8.5,5.1,13.5,5.5c15.5,1.3,25.7,9.4,29.6,24.8
		c1.9,7.5,5.7,14.3,6.3,22.3c0.9,10.7-2.4,19.6-9.5,26.9C619.1,247.5,612.3,252.3,603.3,252.2z"/>
	<path class="st0" d="M220.6,910.8c-0.2-5-0.5-10-0.7-15c-0.3-5.9-3-10.4-7.3-14.2c-13.5-12.4-16.6-27.9-12-45.1
		c4.6-17,16.2-27.4,33-32.1c0.5-0.1,1-0.4,1.4-0.3c8.9,2.2,12-4.3,15.7-10.1c3-4.7,5.8-9.5,12.8-8.3c5.3,0.9,9.6,5,9.8,10.4
		c0.4,12-2.1,23.3-6.9,34.3c-2.7,6.2-4.6,12.8-8.2,18.7c-1.6,2.7,0.5,5.8,1,8.7c1.9,10.9,9.6,17,18.3,22.1
		c5.3,3.1,10.2,6.7,15.7,9.5c3.9,2,6.3,6,8,10c4.2,10.2,7.1,20.6,7.5,31.8c0.4,11,1.5,22.1-1.6,32.6c-2.1,7.2-5.2,14.8-11.8,19.7
		c-6.2,4.6-13.1,7-20.9,6.9c-10.8,0-19.9-4.7-29-9.7c-3.2-1.8-5.8-4.5-7.7-7.8C226.9,953.5,219.1,933.4,220.6,910.8z"/>
	<path class="st0" d="M881.9,932c-0.3-5-0.4-10-0.8-14.9c-0.4-5.4-2.7-9.6-7-13.2c-15.4-13.1-18.9-38.2-7.8-56.6
		c8.1-13.3,19.6-21.5,35.8-21.5c2.8,0,4.1-1.1,5.3-3.4c2.2-4.1,4.8-7.9,7.9-11.5c3.3-3.9,7.2-4.8,11.6-3.1c4.5,1.7,7.4,5.1,7.7,10.1
		c0.7,12-3,23.2-7.1,34.2c-2.3,6.2-4.2,12.6-7.9,18.2c-0.8,1.2-0.6,2.6-0.3,3.9c1.2,4.9,2.6,9.6,4.8,14.1c3.1,6.4,9.2,9.3,14.6,12.8
		c5.2,3.3,10.6,6.6,15.9,9.9c7.8,4.8,10,13.8,12.2,22.2c2.2,8.2,2.1,16.8,3.1,25.2c1.1,9.5-0.6,18.5-2,27.6
		c-2.4,15.4-17.1,26.4-32.7,25.9c-10.4-0.3-19.3-4.4-28-9.4c-8-4.5-10.6-13-14.6-20.4C884.2,966.5,881.6,949.6,881.9,932z"/>
	<path class="st0" d="M1003.4,301c11.9,44.8,11.3,65,7.5,74.7c-1,2.5-6.5,15.4-7.6,33.3c-0.1,2.1-0.2,3.8-0.2,5
		c-8.1,2.2-16.5,1.3-24.7,2.7c-6.9,1.2-12,4-15.3,9.6c-5.3,8.8-12.7,12.3-22.7,10.8c-7-1-11.9-5.6-16.7-10.2
		c-7.5-7.3-11.1-16.9-14.2-26.5c-2.6-8.1-5.7-15.9-11.1-22.6c-4.3-5.3-6.8-11.7-9.2-18.1c-3.1-8,0.6-14.4,6.6-18
		c14.2-8.5,21-22,28.3-35.7c5.8-10.9,14.1-20.1,26.4-23.4c11.1-3,22-1.6,32.6,4.4C990.5,290.9,997.3,295.3,1003.4,301z"/>
	<path class="st0" d="M872.4,540.6c-0.7-8.2,2.4-15.3,6-22.3c6.5-12.5,15.1-23,28.2-29.2c1-0.5,2.2-1.4,3.2-1.3c6.8,0.7,9-3.4,9.9-9
		c1.3-7.5,6.8-11.9,12-16.5c7-6.1,14.6-10.4,24.3-9.3c8.7,1,16.4,3.9,22.9,9.9c4.2,3.9,4,9.4,4.7,14.4c0.8,6.4,0.9,13,0.7,19.4
		c-0.2,7.8-2.8,15.1-7.5,21.3c-4.4,5.8-4.7,11.8-2.1,17.9c6.1,14.6,0.7,27.1-6.1,39.6c-2.2,4.1-4.8,7.9-7.6,11.7
		c-5.3,7.2-12,12.3-20.2,15.6c-4.3,1.8-7.9,4.9-13.2,5c-10.1,0.1-18.7-5.4-21.8-15.1c-0.5-1.6-1-3.2-1.2-4.8
		c-0.7-6.3-4.4-10.1-9.8-12.8c-9.7-4.9-16.9-12.1-20.8-22.5C872.5,548.5,872.5,544.6,872.4,540.6z"/>
	<path class="st0" d="M304.9,492.2c1,9.7-1.7,18.5-7.3,26.2c-3.7,5-4.8,10.5-2.3,15.5c6.5,13.5,2.4,26-3.2,37.8
		c-5.3,11.1-12.1,21.8-23.5,27.6c-6.3,3.2-12.2,7.4-19.8,8.5c-11.3,1.6-18.6-8-21.8-15.4c-0.8-2-1.2-4.2-1.6-6.3
		c-0.8-4.6-3.3-7.7-7.4-10c-4-2.3-8.1-4.7-11.6-7.7c-13.9-11.9-15.5-27.2-9.7-43.2c5.6-15.5,15.4-28.3,30.7-35.9
		c1.2-0.6,2.5-1.6,3.6-1.5c6.7,0.5,9.1-3.4,9.8-9.1c0.8-6.6,5.8-10.2,9.9-14.5c14.6-15,31.5-14.4,47.6-3c6.1,4.3,5.7,11,6.6,17.1
		C305.4,482.9,304.9,487.6,304.9,492.2z"/>
	<path class="st0" d="M175.7,339.3c-0.2,6.3-1.3,13-4.3,18.9c-3.3,6.7-3.8,13.1,0.2,19.4c3.9,6.2,2.7,12.7,1,18.8
		c-2.1,7.8-5.3,15.4-9.4,22.4c-4.9,8.2-12.1,12.5-21.7,12.8c-14.1,0.4-25.8-4.7-36.7-13.9c-6.7-5.7-13.4-11.2-19.7-17.3
		c-12.8-12.4-14.2-28.8-6.7-42.6c4.2-7.7,7.9-15.7,12.4-23.2c3.8-6.4,7.7-12.8,11.4-19.3c6-10.6,14.7-18.8,23.9-26.6
		c6.5-5.5,24.8-4.9,32.9,7.9c5,7.9,9.9,15.7,13.4,24.4C174.7,326.6,175.1,332.8,175.7,339.3z"/>
	<path class="st0" d="M822.1,431.7c-16.1-0.1-27.4-5.2-38.2-13.8c-7.7-6.2-14.6-12.8-21.7-19.5c-10.7-10.2-12.1-25.8-5.9-38.7
		c8.9-18.7,19.4-36.7,31.3-53.7c5.1-7.3,11.9-13.1,18.9-18.3c6.4-4.8,21.7-1.8,27.3,4.5c11.7,13.2,19.4,28.1,20.4,46.1
		c0.4,7.1-1.4,14-4,20.4c-2.5,6.3-3.3,11.9-0.1,18.1c4.7,9.1,2.1,18.2-1,27.1c-1.7,4.8-3.8,9.5-6.3,14
		C837.7,426.9,829.8,431,822.1,431.7z"/>
	<path class="st0" d="M14.4,228.7c-0.6-9.9,3.3-18.7,8.2-27c2.5-4.3,3.8-8.2,2.1-13.1c-5-14.4,2-26.2,9.1-37.7
		c11.5-18.4,28.3-18.5,45.5-9.1c13.5,7.4,23,19.1,31.9,31.5c5.6,7.8,10.4,15.4,9.5,25.4c-0.6,6.9-3.2,12.8-7,18.8
		c-8.5,13.4-19.6,24.7-28.8,37.5c-7.7,10.6-18.5,17.7-29.6,24c-7.9,4.5-23.7-0.9-28.5-9.4c-4.8-8.4-10.2-16.7-11.6-26.7
		C14.5,238.1,13.8,233.6,14.4,228.7z"/>
	<path class="st0" d="M693.3,228.3c0.1-10.6,4.1-20.9,10.4-30.3c2.6-3.8,0.9-7.7-0.5-11c-3.3-7.9-1.3-15.2,2-22.1
		c2.9-6.1,6.1-12.2,10.3-17.6c7.1-9.1,16-13,27.5-10.8c12.6,2.4,22.4,9,31.5,18.2c6.6,6.7,12.1,14,17.6,21.4
		c10.4,13.9,9.7,27.2,0.2,41.9c-9.1,14-20.5,26.1-30.4,39.4c-7.1,9.5-17.4,15.9-27.7,21.7c-6.9,3.8-21.4,0-26.5-6.8
		C698.2,259.5,692.3,245.4,693.3,228.3z"/>
	<path class="st0" d="M383.8,283c-5.9,0.8-10.2-1.8-14-6.5c-13-15.8-14.8-34.1-11.3-53.1c1.8-9.3,9.7-15.7,16.8-21.7
		c7.5-6.2,16.4-9,26-9.7c4.6-0.3,6-4.3,7.1-7.7c2.3-6.8,5.7-12.6,11.8-16.7c4.5-3,8.3-6.9,13.6-8.8c5.7-2,10.7-2.5,15.8,1.8
		c4.7,3.9,10.5,6.3,14.7,11c5,5.6,8.3,12,10.1,19.2c1.2,4.7,2.2,9.4,3.4,14.1c5.1,19.4-2.4,29-16.3,38.6
		c-11.6,8-24.5,13.7-35.7,22.5c-9.3,7.3-20.9,11.5-32,15.9C390.8,283,387.3,283.3,383.8,283z"/>
	<path class="st0" d="M462.6,442.3c0.6,9.8-5.3,17-10.6,24c-6.9,9.2-16.4,15.2-28,17.6c-3.8,0.8-5.2,4.9-5.8,8.3
		c-2.7,14.5-12.2,23.4-24.1,30.4c-3.7,2.2-7.7,2.3-11.8-0.1c-5.8-3.4-12.3-5.3-17.7-9.8c-5.4-4.5-9.7-9.5-12.2-16
		c-1.8-4.6-4.2-9.1-5.8-13.8c-5.5-16.1-4.7-27.7,7.5-38.1c8.9-7.7,17-16.3,27.4-22.2c0.6-0.3,1.1-0.8,1.5-1.3
		c7.7-11.2,19.7-17.1,30.4-24.6c5.5-3.9,12.1-5.7,18.9-5.7c8.8,0,14.4,6,18.4,12.7c5.8,9.8,10.5,20.4,11.6,32
		C462.5,438,462.5,440.1,462.6,442.3z"/>
	<path class="st0" d="M738.5,939.1c0-17.2,4.5-33.2,14.5-46.9c5.7-7.8,10.2-16.5,17.7-23c9-7.7,20.3-5.9,26,4.6
		c0.6,1.2,1.4,2.3,1.7,3.6c0.8,2.7,2.2,3.6,5.3,3.9c11.6,1.1,22.1,4.7,28.2,15.8c2.6,4.8,2.3,9.5-0.4,14.3c-2,3.5-4.2,6.9-7.2,9.5
		c-7.1,6.3-14,12.8-21.4,18.6c-6,4.7-13,6.4-20.7,4.2c-3.2-0.9-6.5-1.2-9.8-1.8c-4-0.8-4.7,2.7-6,4.9c-2.2,3.9-5.2,6-9.6,7.1
		C745.7,956.6,738.1,950.8,738.5,939.1z"/>
	<path class="st0" d="M135.3,589.6c5.9,3.3,9.5-1.2,14-5.9c7.1-7.5,15.9-12.6,27.1-10.6c4.8,0.8,7.8,3.7,9.9,8.2
		c4.8,10.4,4.5,21.7,6.6,32.6c2.6,13.7-1.8,24-12.8,32c-2.6,1.9-3.4,4.4-1.3,7.3c4.6,6.3,3,12.8-0.3,18.8
		c-3.6,6.5-10.9,8.1-17.7,3.9c-17.6-10.8-30.3-25.6-36-45.8c-1-3.6-3.1-6.4-4.6-9.6c-2.7-5.7-3.6-12.2-2.8-18.5
		C118.4,594.9,126.4,589.3,135.3,589.6z"/>
	<path class="st0" d="M847.6,595.1c0.1,9.5-4.7,16.4-11.7,22c-4.3,3.4-5.6,6.6-2.5,11.8c3.3,5.7,0.5,15.9-4.6,20.1
		c-3.4,2.8-10.5,3-15.1-0.2c-14.4-10-27-21.6-32.8-38.9c-3.2-9.4-7.8-18.2-9.9-28.2c-2.2-10.6,7.7-20.7,18.4-18.7
		c5.4,1,8.6,0,12.1-4.6c5.1-6.8,12.5-10.8,21-12.4c6.5-1.2,15.2,2.1,18.1,9.9c3.8,10,4.3,20.5,5.7,30.8
		C846.8,589.6,847.2,592.4,847.6,595.1z"/>
	<path class="st0" d="M152.9,926.1c13.2,0.1,24.4,3.9,32,15.1c3.6,5.2,3.2,10-0.1,15.3c-7.6,12.2-19.4,19.9-30.1,28.8
		c-5.5,4.5-12.5,5.5-19.4,3.2c-3.2-1.1-6.6-0.9-9.8-1.7c-3.7-0.9-4.5,2.4-5.6,4.5c-2.3,4.3-5.6,6.6-10.3,7.7
		c-10.8,2.5-18.7-4-17.7-15.3c1.4-15.4,3.3-30.7,12.5-44c1.8-2.6,3.3-5.3,5.7-7.5c2.7-2.5,4.3-5.7,6.2-8.9
		c6.6-11.3,19.2-19.9,31.4-8.6C150.7,917.8,151.3,922,152.9,926.1z"/>
	<path class="st0" d="M520.4,552.4c2,16.2-4.4,30.1-11.9,43.6c-3.4,6-5.5,12.5-9.9,18.2c-7.9,10.4-24.2,7.4-28.5-3
		c-1.4-3.4-3.1-4.2-6.8-3.9c-10.3,0.8-19.9-1.9-27.7-8.7c-5.8-5.1-6.3-11-3.4-18.2c2.5-6.1,6.3-11.4,10.9-16
		c5.6-5.6,9.5-12.7,16.3-17.4c4.9-3.4,9.9-5.1,15.8-4.6c2.2,0.2,4.4,0,6.5,0.4c5.3,1,8.2-1.2,10.1-6.2c2-5.3,12-10,17.5-9
		c5.7,1.1,10.7,7.4,11.1,14.4C520.5,545.5,520.4,549,520.4,552.4z"/>
	<path class="st0" d="M564.1,446.6c6.5,0,11.3,0.1,16.2,2c9.6,3.7,12.7,10,9.4,19.7c-3,8.9-6.2,17.6-12,25.3
		c-2.3,3.1-2.7,7.5-3.1,11.4c-1.3,10.9-6.8,20-12.7,28.8c-4.6,6.9-18.5,4.3-21.8-3.8c-1.8-4.4-2.3-9-2.1-13.7
		c0.3-9.5-4.5-16.1-12-20.9c-12-7.6-14.3-20.2-6.8-32.2c6-9.8,14.1-13.8,25.1-13.6c1.5,0,3-0.3,4.4-0.7
		C554.2,447.2,559.7,445.6,564.1,446.6z"/>
	<path class="st0" d="M367.7,161.3c-9.6-2.6-19.8,2.1-30.1-0.7c-4.9-1.3-9.6-3-13.6-5.8c-6.3-4.4-6.7-9.9-3.6-18.9
		c2.7-7.8,7.7-14.2,13-20.1c4.8-5.5,7.2-11.9,9.1-18.5c2.7-9.3,8.5-16.5,14.7-23.2c5-5.4,15-3.1,18.6,3.5c2.2,4,3.3,8.4,2.4,13
		c-2.4,12,0.8,21.6,10.8,29.5c6.6,5.2,7.5,13.3,5.8,21C392.4,151.4,378.6,161.4,367.7,161.3z"/>
	<path class="st0" d="M714.2,1010.6c-16,0-32,0.1-48,0.1c-2.2-1.1-4.5-2.1-6.7-3.3c-7.3-4-8.8-10.6-4.8-20.1
		c3.5-8.5,8.4-15.9,15-22.3c3-2.9,4.4-7.1,5.4-11c2.5-9.5,7.3-17.8,13.3-25.3c4.5-5.7,8.7-6.9,13.7-4.9c8,3.3,10.9,7.9,10.4,16.6
		c-0.2,3.8-1.1,7.6-1,11.4c0.2,7.4,3.5,13.3,9.4,17.9c10.1,7.8,11.5,21.9,3.1,31.6C721,1004.8,718.1,1008.3,714.2,1010.6z"/>
	<path class="st0" d="M964.2,652.4c13.6,6.3,18.1,14.4,19.8,18.5c5,12.3,0.6,27.2-4.2,43c-3.1,10.4-5.6,14-5.5,22.4
		c0.1,8.5,2.7,12.5,0.8,18.5c-2.2,6.9-8.5,11.1-13.7,13.5c-14.4,0.8-25.4-1.2-32.7-2.3c-11.9-1.9-19.5-8.9-24.4-19.9
		c-7.4-16.8-5.5-34.2-3.1-51.3c1.9-12.8,5.3-25.6,11.4-37.3c2.6-5,5.8-9.5,9.5-13.6c8-8.8,24.8,0.1,31.6,3
		C958.3,648.9,961.8,650.9,964.2,652.4z"/>
	<path class="st0" d="M262.6,217.3c0.9,15.5-5,23.6-17.8,26c-2.2,0.4-4.4,0.5-6-1.2c-2.9-3-5.4-2.2-8.5,0.1
		c-4.4,3.2-9.8,4.9-14.9,6.8c-3.4,1.3-6.9,1-10.3-0.1c-3.6-1.2-7.3-2.2-10.8-3.7c-6.1-2.5-11.8-4.1-18.4-0.3
		c-4.4,2.5-9,0.2-12.4-3.6c-3-3.4-1.7-6.4-0.4-10.1c3.3-8.8,11.6-12.4,17.6-18.4c7.7-7.7,17.9-8.7,27.2-12.1
		c10.2-3.7,20.9-6.3,31.3-9.3c10.3-3,16.7,2.6,21,13.3C262,209,263.1,213.7,262.6,217.3z"/>
	<path class="st0" d="M941.8,217.3c0.3,15.9-5.6,23.6-17.8,26c-2.4,0.5-4.7,0.5-6.5-1.3c-2.8-2.6-5.1-2.4-8.2-0.1
		c-11.7,8.8-24.2,9.7-37.2,3.2c-5.6-2.8-11-3.4-17-0.3c-4.6,2.4-9,0.6-12.5-3.3c-3.2-3.5-2-6.7-0.5-10.5
		c3.4-8.5,11.2-12.3,17.3-18.1c7.9-7.6,18.2-8.9,27.7-12.3c10.2-3.7,20.9-6.3,31.3-9.3c8.9-2.5,17.4,2.8,20.8,13.2
		C940.9,209.4,941.9,214.5,941.8,217.3z"/>
	<path class="st0" d="M659.9,353.4c3.5-4.7,9-7,13.5-10.6c5.8-4.5,12.4-4.1,19.1-2.8c2.9,0.6,5.9,1,8.8,1.9c5,1.5,9.3,0.8,13.6-2.2
		c4.5-3.2,9.9-2.6,13.8,0.9c2.7,2.4,3.5,5.1,2.6,8.9c-2.3,9.9-10,15.7-15.9,23c-6.4,7.9-15.8,10.1-23.7,15
		c-9.4,5.8-19.7,10-30.1,14.1c-9.1,3.6-15.8-0.5-20.2-7c-6.2-8.9-8.6-19.1-6.6-29.9C636.9,353.8,649.5,348.1,659.9,353.4z"/>
	<path class="st0" d="M621.6,605c0.1,10.6,1.9,20.3,2.2,30.1c0.4,11.1-4.8,20.2-9.9,29.3c-2.9,5.2-12,4.2-15.1-1.5
		c-2.2-4-4.3-8.3-4.3-13.1c0-3.8-1.9-6.1-4.7-8.3c-4.4-3.5-9.4-6.3-12-11.7c-3.6-7.4-0.7-13.7,3-19.7c3.8-6,8.4-11.5,12.5-17.4
		c2.8-4.1,6.5-5.4,11.2-4.4c0.6,0.1,1.3,0.1,2,0.3c4.3,1.1,10.3-2.8,12.6,3.8C620.7,596.6,622.9,600.9,621.6,605z"/>
	<path class="st0" d="M667.3,880.6c-4.6-0.9-9.1-1.9-13.7-2.8c-1.8-0.3-3.4-1.4-3.8-2.9c-1.1-5.2-3.4-10.1-1.3-15.8
		c1.4-3.7,1-8.1,1.1-12.2c0.2-8.7,1.3-17.1,3.5-25.6c2-7.9,8-12.9,12.3-19c2.9-4.1,9.5-2.7,12.3,1.6c2.9,4.5,4.5,9.4,4,14.7
		c-0.6,6.2,2.5,10.5,6.3,14.5c8.9,9.3,9.8,16.4,2.2,26.3c-4.8,6.3-10.4,12.1-15.8,18C672.6,879.3,670.4,881,667.3,880.6z"/>
	<path class="st0" d="M696.9,620.7c6.5,1.1,15.4,2.9,18.6,13.6c0.7,2.4,2.8,3.4,4.9,3.7c11,1.6,14.3,14.1,9.9,22.3
		c-4.7,8.5-9.6,17.3-20.1,20.3c-1.1,0.3-2,1.1-3,1.7c-6.9,4-15.5-0.2-16.5-8.1c-0.2-1.3-0.4-2.7-0.2-4c0.6-4.8-1.3-6.8-6.2-8.1
		c-13.8-3.7-18.1-18.8-9.2-30C680.1,625.9,685.1,620.1,696.9,620.7z"/>
	<path class="st0" d="M559.9,31.3c-0.1-2.9,7.9-7,16.3-7c5.8,0,6.7,2.1,12.3,1.3c4-0.5,4.2-1.9,9-3c1.6-0.4,7-1.5,12.5-0.3
		c4.8,1,7,3.2,13.2,7.7c11.6,8.4,12.3,6.9,16.9,10.9c7.2,6.3,9.6,14.1,12.6,23.5c4.6,14.5,3.8,26.4,3.2,35.2
		c-0.1,1.5-0.8,11.4-4.4,21c-1,2.6-2.1,4.9-3.5,7.2c-0.6,0.9-3.3,5-6.9,7.9c-6.1,4.9-13.4,5.2-17.8,5.4c-2.3,0.1-20.8,0.7-34.6-13.1
		c-3.1-3.1-5.1-6.4-9.1-13.2c-6.8-11.4-13.3-22.4-12.8-33.7c0.1-2.1,0.6-7.3,0.4-14.6c-0.1-2.4-0.2-3-0.2-6c-0.2-7.7,0.3-7.8,0-11.9
		c-0.3-2.9-1-7.9-3.2-11c-0.1-0.2-0.5-0.7-1.1-1.6C560.8,33.5,559.9,32.1,559.9,31.3z"/>
</g>
</svg>
