<?xml version="1.0" encoding="utf-8"?>
<!-- Generator: Adobe Illustrator 19.0.0, SVG Export Plug-In . SVG Version: 6.00 Build 0)  -->
<svg version="1.1" id="Layer_1" xmlns="http://www.w3.org/2000/svg" xmlns:xlink="http://www.w3.org/1999/xlink" x="0px" y="0px"
	 viewBox="-222.4 103.3 459.2 355.5" style="enable-background:new -222.4 103.3 459.2 355.5;" xml:space="preserve">
<g id="XMLID_2_">
	<path id="XMLID_3_" d="M166.6,133.1c-29.7-13.9-61.5-24-94.7-29.8c-4.1,7.4-8.8,17.3-12.1,25.2c-35.3-5.3-70.3-5.3-105,0
		c-3.3-7.9-8.2-17.8-12.3-25.2c-33.3,5.8-65.1,15.9-94.8,29.8c-60,90.7-76.3,179.1-68.1,266.2c39.8,29.7,78.3,47.7,116.2,59.5
		c9.4-12.9,17.7-26.6,24.9-41c-13.7-5.2-26.8-11.6-39.2-19.1c3.3-2.4,6.5-5,9.6-7.6c75.6,35.3,157.7,35.3,232.3,0
		c3.1,2.6,6.4,5.2,9.6,7.6c-12.4,7.5-25.6,13.9-39.3,19.1c7.2,14.4,15.5,28.1,24.9,41c37.9-11.8,76.5-29.8,116.3-59.6
		C244.4,298.3,218.6,210.8,166.6,133.1z M-69.1,345.6c-22.7,0-41.3-21.2-41.3-47s18.2-47,41.3-47s41.7,21.2,41.3,47
		C-27.8,324.5-46,345.6-69.1,345.6z M83.5,345.6c-22.7,0-41.3-21.2-41.3-47s18.2-47,41.3-47c23.1,0,41.7,21.2,41.3,47
		C124.8,324.5,106.6,345.6,83.5,345.6z"/>
</g>
</svg>
