<?xml version="1.0" encoding="utf-8"?>
<!-- Generator: Adobe Illustrator 19.0.0, SVG Export Plug-In . SVG Version: 6.00 Build 0)  -->
<svg version="1.1" id="Layer_1" xmlns="http://www.w3.org/2000/svg" xmlns:xlink="http://www.w3.org/1999/xlink" x="0px" y="0px"
	 viewBox="-322 195.9 379 379.1" style="enable-background:new -322 195.9 379 379.1;" xml:space="preserve">
<g id="XMLID_2_">
	<path id="XMLID_70_" d="M-74.4,332.8c4.3,9.3,9.2,18.5,14.1,27.4c1.2,2.6,2.6,5.1,3.6,7.8c3,7.7,2.5,15.2-1.5,22.5
		c-2.1,3.7-5.6,6-8,9.4c-3,3-6,5.9-9,8.9c-3.9,4-7.8,8.1-11.7,12.1c-6.3,6.4-12.8,12.6-18.8,19.3c-0.8,0.6-1.6,1.2-2.1,2.1
		c-7.3,7.5-14.7,14.9-22,22.4c-2.8,2.9-7,3.4-9.8,0.7c-3.9-3.7-7.7-7.8-11.5-11.6c-3.3-3.3-6.5-6.6-9.8-9.9
		c-1.7-1.8-3.4-3.7-5.1-5.4c-5.2-5.4-10.6-10.8-15.9-16.1c-0.3-0.3-0.5-0.7-0.8-1c-8-8.2-16-16.3-24-24.5c-2.2-2.3-4.3-4.4-5.7-7.4
		c-2.5-5.2-3.9-10.6-2.7-16.5c1.1-4.9,3.6-9.1,5.5-13.5c2.2-3.6,3.7-7.5,5.6-11.2c3-5.4,5.7-11.1,8.6-16.5c0.4-0.8,0.7-1.5,1.1-2.3
		c4.2-8.2,8.5-16.4,12.6-24.6c7.8-15.3,15.6-30.6,23.4-45.8c0.3-0.7,0.6-1.4,0.9-2.1c5.1-9.8,10.4-19.5,14.9-29.6
		c1.2-2.7,3.7-4.2,6.6-4.4c2.9-0.2,5.4,0.9,6.8,3.6c7.6,14.9,15.2,29.8,22.8,44.7c5.5,10.9,11.1,21.6,16.7,32.5
		C-84.4,313.5-79.3,323.1-74.4,332.8z"/>
	<path id="XMLID_69_" d="M-175.3,523.1c-8.6,1.4-17.3,2.9-25.8,4.8c-8.6,2-17.1,4.2-25.5,7.1c-5.9,2.1-12,2.1-18.3,1.6
		c-0.7-0.1-1.4-0.5-2.1-0.7c-7.3-2.1-13.4-5.9-18-11.9c-2.5-3.3-4.2-7-5.4-11.1c-3.6-12.1-7.1-24.4-10.7-36.5c-1-3.3-2-6.5-3-9.8
		c-2.3-8.1-4.5-16.3-6.9-24.4c-5-17.4-10.1-34.6-15.1-52c-3.1-10.7-6.2-21.3-9.4-31.9c-2-6.8-3.8-13.6-5.8-20.4
		c-0.2-0.6-0.3-1.1-0.5-1.7c-1-3.6-0.2-6.8,2.1-8.2c3.3-2,7.3-1.5,10,1.2c10.8,10.9,21.4,21.8,32.2,32.7c0.8,0.8,1.6,1.5,2.4,2.3
		c12.4,12.6,24.8,25.4,37.2,38c10.8,11,21.6,21.9,32.4,32.9c1.1,1.1,2.3,2.3,3.4,3.4c7.6,7.5,14.7,15.3,22.5,22.6
		c0.6,1.2,1.6,2.2,2.6,3.1c4.2,4.2,8.5,8.5,12.7,12.7c10.2,10.4,20.4,20.6,30.6,31c1.5,1.6,3,3.3,3,5.6c-0.1,3.5-2.8,6.2-6.4,6.5
		c-5.6,0.4-11.2,0.6-16.9,1c-1,0.1-2.1-0.1-3,0.4C-163.2,521.5-169.3,522.5-175.3,523.1z"/>
	<path id="XMLID_66_" d="M-23.4,393.2c14-14.2,28.1-28.4,42-42.7c4-4.1,8-8.4,12-12.6c2.9-2.9,5.7-5.6,8.7-8.5
		c3.5-3.4,8.5-3.2,11.3,0.4c2,2.4,1.5,5,0.7,7.7c-1.4,4.8-3.1,9.7-4,14.6c-4.5,15.6-9.2,31.1-13.7,46.7c-1.5,5-3.2,10-4.2,15.1
		c-2.1,7-4.2,14-6.3,21c-2.8,9.3-5.4,18.7-8.2,27.9c-0.3,1-0.4,2-0.6,3c-3.7,12.6-7.4,25.2-11.2,37.8c-0.8,2.9-1.7,5.6-2.5,8.5
		c-1.5,5.2-3.6,10.2-7.2,14.2c-7.2,7.9-15.8,12.7-26.9,11.6c-4.5-0.4-8.7-2.6-13-3.7c-1.1-0.3-2.1-0.5-3.2-0.8
		c-7.8-2.7-15.8-4.6-24-6.2c-4.4-0.8-8.3-2.6-11.5-5.8c-8.6-8.8-17.2-17.5-25.8-26.2c-0.3-0.5-0.7-1-1-1.4
		c-3.3-3.7-3.2-6.9,0.3-10.5c1.5-1.5,2.9-3.1,4.2-4.5c1.2-1.1,2.4-2.2,3.5-3.4c10.4-10.6,20.6-21.1,30.9-31.8
		c0.8-0.7,1.7-1.5,2.4-2.3c4.4-4.6,8.9-9.2,13.4-13.8c8.4-8.6,16.8-17.2,25.2-25.8C-28.7,399.3-26.3,395.9-23.4,393.2z"/>
</g>
</svg>
