<?xml version="1.0" encoding="utf-8"?>
<!-- Generator: Adobe Illustrator 19.0.0, SVG Export Plug-In . SVG Version: 6.00 Build 0)  -->
<svg version="1.1" id="Layer_1" xmlns="http://www.w3.org/2000/svg" xmlns:xlink="http://www.w3.org/1999/xlink" x="0px" y="0px"
	 viewBox="-191 155 351 351" style="enable-background:new -191 155 351 351;" xml:space="preserve">
<g id="XMLID_2_">
	<g id="XMLID_10_">
		<path id="XMLID_11_" d="M160,330.3c0,27.7,0,55.4,0,83.1c0,9.4-0.2,18.7-1,28c-1.4,15.9-7,30-17.9,41.8
			c-8.9,9.7-19.7,16.1-32.4,19.5c-4.8,1.3-9.7,2-14.7,2.4c-9.8,0.8-19.6,0.9-29.5,0.9c-54.4,0-108.7,0-163.1,0
			c-9.2,0-18.4-0.3-27.6-1c-13.3-1.1-25.5-5.2-36.2-13.2c-12.8-9.5-21.2-22-25.3-37.4c-1.4-5.1-2-10.2-2.4-15.4
			c-0.8-10-0.9-20.1-0.9-30.2c0-54.5,0-109,0-163.5c0-8.3,0.4-16.5,1-24.8c0.7-9.8,3.1-19.1,7.6-27.8c9.3-17.7,23.7-29.2,43.1-34.4
			c5-1.4,10.1-2,15.2-2.4c9.9-0.8,19.8-0.9,29.7-0.9c54.7,0,109.3,0,164,0c8.4,0,16.8,0.4,25.2,1c11.6,0.9,22.5,4.1,32.4,10.4
			c14.9,9.5,24.7,22.8,29.4,39.9c1.3,4.8,2,9.7,2.5,14.7c1,12.4,1,24.8,0.9,37.2c0,0.8,0,1.6,0,2.3C160,283.8,160,307.1,160,330.3z
			 M74,265.1c-0.5-0.1-0.8-0.1-1.1-0.1c-4.9,0-9.6-0.9-14.2-2.4c-5.3-1.7-10.4-3.7-14.6-7.6c-0.5-0.5-1.1-0.9-1.7-1.3
			c-8.3-6.5-14.2-14.8-17.5-24.9c-0.6-1.9-1.1-3.7-1.5-5.6c-0.2-1-0.8-1.5-1.8-1.5c-0.4,0-0.8,0-1.2,0c-7.4,0-14.8,0-22.2,0
			c-0.6,0-1.2,0-1.9,0.1c-0.8,0.1-1.1,0.5-1.2,1.3c-0.1,1-0.1,2-0.1,3c0,48.4,0,96.7,0,145.1c0,3.2-0.5,6.2-1.5,9.2
			c-4.7,13.9-18.5,22.6-32.6,21c-6.3-0.7-11.9-3-16.8-7c-1.8-1.5-3.4-3.2-5.1-4.8c-0.2-0.2-0.4-0.5-0.6-0.7
			c-3.4-4.8-5.6-10.2-5.8-16.1c-0.5-11.3,3.5-20.6,12.7-27.4c4.6-3.4,9.7-5.5,15.5-6c3.8-0.4,7.5,0,11.1,0.8c0.5,0.1,1,0.1,1.5,0.1
			c0.3-2.1,0.4-30.4,0.2-36.4c0-0.4-0.1-0.8-0.2-1.3c-1.2-0.3-2.5-0.5-3.7-0.5c-5.4-0.2-10.7-0.3-16.1,0.3
			c-7.1,0.9-13.9,2.8-20.3,5.9c-8.4,4.1-15.4,10-21.5,17c-14.4,16.5-19.8,38.9-15.5,59.6c2.1,10,6.3,19.1,12.3,27.3
			c1.3,1.8,2.8,3.3,4.3,4.9s3.1,3,4.8,4.5c17.2,15.1,37.1,20.6,59.5,16.6c13-2.3,24.4-8.1,33.9-17.2c14.4-13.7,21.8-30.5,21.9-50.4
			c0.1-24,0-48,0-72.1c0-0.7,0-1.4,0-2.1c0-0.4-0.1-0.8,0.5-1.1c0.4,0.2,0.9,0.5,1.3,0.8c11,7.4,23,12.1,36,14.2c1,0.2,2,0.4,3,0.1
			c0.1-0.2,0.2-0.5,0.2-0.7c0-14.5,0-29,0-43.5C74.2,265.9,74.1,265.6,74,265.1z"/>
	</g>
</g>
</svg>
