<?xml version="1.0" encoding="utf-8"?>
<!-- Generator: Adobe Illustrator 19.0.0, SVG Export Plug-In . SVG Version: 6.00 Build 0)  -->
<svg version="1.1" id="Layer_1" xmlns="http://www.w3.org/2000/svg" xmlns:xlink="http://www.w3.org/1999/xlink" x="0px" y="0px"
	 viewBox="-287.7 186.4 205.5 211.9" style="enable-background:new -287.7 186.4 205.5 211.9;" xml:space="preserve">
<g id="XMLID_2_">
	<g id="XMLID_12_">
		<path id="XMLID_15_" d="M-236.1,398.2c0-0.5,0-0.9,0-1.3c0-7.6,0-15.3,0-22.9c0-0.9-0.3-1.2-1.2-1.2c-16.3,0-32.5,0-48.8,0
			c-0.4,0-0.9,0-1.6,0c0-1.1,0-2.1,0-3.2c0-34.6,0-69.2,0-103.8c0-11.7,0.1-23.5,0-35.2c0-3.8,0.5-7.5,1.8-11.1
			c2.7-7.6,5.1-15.2,7.7-22.9c0.9-2.6,1.7-5.2,2.5-7.8c0.7-2.1,1.1-2.4,3.3-2.4c9.4,0,18.8,0,28.3,0c53.4,0,106.8,0,160.3,0
			c0.5,0,0.9,0,1.6,0c0,0.5,0,1,0,1.4c0,28.2,0,56.4,0,84.6c0,13,0,26.1,0,39.1c0,2.1-0.7,3.7-2.1,5.1c-18.1,18-36.2,36.1-54.2,54.2
			c-1.5,1.5-3.3,1.8-5.3,1.7c-0.5,0-1-0.1-1.4-0.1c-10,0-20,0-30-0.1c-2.5,0-4.6,0.8-6.3,2.6c-1.9,2-3.9,3.9-5.8,5.9
			c-2,2-3.9,4.1-5.9,6c-3.4,3.4-6.7,6.7-10.2,10c-0.7,0.6-1.8,1.1-2.7,1.1c-9.6,0.1-19.2,0.1-28.8,0.1
			C-235.3,398.3-235.6,398.3-236.1,398.2z M-210.8,366.4c0.1,0,0.2,0.1,0.2,0.1c0.5-0.4,0.9-0.9,1.4-1.3
			c7.4-7.4,14.8-14.7,22.1-22.1c1.5-1.5,3.1-2.2,5.2-2.2c15.3,0,30.6,0,45.9,0c1.8,0,3.3-0.6,4.6-1.9c9.4-9.3,18.7-18.7,28.1-27.9
			c1.7-1.6,2.4-3.4,2.4-5.7c-0.1-17.4-0.1-34.8-0.1-52.2c0-15.5,0-30.9,0-46.4c0-0.4,0-0.9,0-1.4c-51.7,0-103.2,0-154.8,0
			c0,0.4-0.1,0.8-0.1,1.2c0,44.4,0,88.7,0,133.1c0,1.4,0,1.4,1.4,1.4c14.1,0,28.3,0,42.4,0c0.4,0,0.9,0,1.4,0
			C-210.8,349.6-210.8,358-210.8,366.4z"/>
		<path id="XMLID_14_" d="M-185.2,301.6c-6.3,0-12.6,0-18.9,0c0-19,0-37.9,0-56.9c6.3,0,12.5,0,18.9,0
			C-185.2,263.7-185.2,282.6-185.2,301.6z"/>
		<path id="XMLID_13_" d="M-152.4,244.7c6.2,0,12.3,0,18.5,0c0,19,0,38,0,57c-6.1,0-12.3,0-18.5,0
			C-152.4,282.7-152.4,263.7-152.4,244.7z"/>
	</g>
</g>
</svg>
