<?xml version="1.0" encoding="utf-8"?>
<!-- Generator: Adobe Illustrator 19.0.0, SVG Export Plug-In . SVG Version: 6.00 Build 0)  -->
<svg version="1.1" id="Layer_1" xmlns="http://www.w3.org/2000/svg" xmlns:xlink="http://www.w3.org/1999/xlink" x="0px" y="0px"
	 viewBox="-101.6 128.4 418.4 293.2" style="enable-background:new -101.6 128.4 418.4 293.2;" xml:space="preserve">
<g id="XMLID_6_">
	<path id="XMLID_9_" d="M113.5,128.4c35.5,1.2,70.9,2,106.4,3.6c15,0.7,30,1.9,44.7,4.5c24.7,4.3,39.7,19.8,44.7,44.2
		c4.6,22.6,6.9,45.5,7.3,68.5c0.4,21.8,0.1,43.6-0.7,65.3c-0.8,20.2-3.1,40.3-7.4,60.1c-4.4,20.7-21.5,36.2-43.8,39.9
		c-22.1,3.7-44.4,5.3-66.7,5.8c-42.7,0.9-85.4,1.6-128,1.2c-30.4-0.3-60.9-2.2-91.3-3.9c-10.3-0.6-20.6-1.8-30.7-3.7
		c-23-4.5-37-18.7-42.2-41.4c-4.8-21.3-6.8-43-7.2-64.8c-0.4-25.3-0.5-50.7,0.8-76c0.9-18,3.5-36,6.5-53.8
		c3.6-21.3,20.7-37.7,42.3-40.6c20.1-2.7,40.4-5,60.7-5.9C43.7,129.7,78.7,129.3,113.5,128.4z M66.8,338.5
		c36.9-21.2,73.1-41.9,109.8-63c-36.8-21.1-73.1-41.9-109.8-63C66.8,254.8,66.8,296.3,66.8,338.5z"/>
</g>
</svg>
